<svg width="50" height="50" viewBox="0 0 50 50" fill="none" xmlns="http://www.w3.org/2000/svg">
<path d="M48.047 24.2188C48.0444 22.1813 47.4531 20.188 46.3443 18.4788C45.2355 16.7695 43.6564 15.417 41.797 14.584V14.0625C41.795 12.08 41.1374 10.1539 39.9266 8.5841C38.7157 7.01434 37.0197 5.88914 35.1027 5.38381C33.1857 4.87848 31.1554 5.02139 29.3281 5.79029C27.5008 6.55918 25.9791 7.91087 25.0001 9.63478C24.0211 7.91087 22.4994 6.55918 20.6721 5.79029C18.8448 5.02139 16.8145 4.87848 14.8975 5.38381C12.9805 5.88914 11.2845 7.01434 10.0736 8.5841C8.86282 10.1539 8.2052 12.08 8.20323 14.0625V14.584C6.34239 15.4142 4.76187 16.7656 3.65274 18.4749C2.54361 20.1842 1.95337 22.1782 1.95337 24.2158C1.95337 26.2535 2.54361 28.2474 3.65274 29.9568C4.76187 31.6661 6.34239 33.0175 8.20323 33.8477V34.375C8.2052 36.3575 8.86282 38.2837 10.0736 39.8534C11.2845 41.4232 12.9805 42.5484 14.8975 43.0537C16.8145 43.559 18.8448 43.4161 20.6721 42.6472C22.4994 41.8783 24.0211 40.5266 25.0001 38.8027C25.9791 40.5266 27.5008 41.8783 29.3281 42.6472C31.1554 43.4161 33.1857 43.559 35.1027 43.0537C37.0197 42.5484 38.7157 41.4232 39.9266 39.8534C41.1374 38.2837 41.795 36.3575 41.797 34.375V33.8477C43.6563 33.0163 45.2356 31.665 46.3446 29.9566C47.4535 28.2482 48.0447 26.2555 48.047 24.2188ZM17.1876 41.0156C15.4617 41.0165 13.8033 40.3453 12.5637 39.1444C11.3241 37.9435 10.6008 36.3071 10.547 34.582C11.1909 34.7041 11.8448 34.7656 12.5001 34.7656H14.0626C14.3734 34.7656 14.6715 34.6422 14.8912 34.4224C15.111 34.2026 15.2345 33.9046 15.2345 33.5938C15.2345 33.283 15.111 32.9849 14.8912 32.7651C14.6715 32.5453 14.3734 32.4219 14.0626 32.4219H12.5001C10.5638 32.4235 8.68945 31.7401 7.20857 30.4926C5.72769 29.2452 4.73581 27.5141 4.40843 25.6057C4.08105 23.6973 4.43928 21.7347 5.41973 20.065C6.40019 18.3953 7.93965 17.1263 9.76573 16.4824C9.99431 16.4016 10.1922 16.2519 10.3321 16.0539C10.472 15.8559 10.5471 15.6194 10.547 15.377V14.0625C10.547 12.3013 11.2466 10.6122 12.492 9.36688C13.7373 8.12152 15.4264 7.42188 17.1876 7.42188C18.9488 7.42188 20.6379 8.12152 21.8832 9.36688C23.1286 10.6122 23.8282 12.3013 23.8282 14.0625V28.3301C22.9876 27.404 21.9625 26.6641 20.8189 26.1578C19.6752 25.6516 18.4383 25.3903 17.1876 25.3906C16.8768 25.3906 16.5787 25.5141 16.359 25.7339C16.1392 25.9536 16.0157 26.2517 16.0157 26.5625C16.0157 26.8733 16.1392 27.1714 16.359 27.3912C16.5787 27.6109 16.8768 27.7344 17.1876 27.7344C18.9488 27.7344 20.6379 28.434 21.8832 29.6794C23.1286 30.9247 23.8282 32.6138 23.8282 34.375C23.8282 36.1362 23.1286 37.8253 21.8832 39.0706C20.6379 40.316 18.9488 41.0156 17.1876 41.0156ZM37.5001 32.4219H35.9376C35.6268 32.4219 35.3287 32.5453 35.109 32.7651C34.8892 32.9849 34.7657 33.283 34.7657 33.5938C34.7657 33.9046 34.8892 34.2026 35.109 34.4224C35.3287 34.6422 35.6268 34.7656 35.9376 34.7656H37.5001C38.1555 34.7656 38.8094 34.7041 39.4532 34.582C39.4126 35.8858 38.9888 37.1488 38.2348 38.2133C37.4809 39.2777 36.4301 40.0966 35.2137 40.5676C33.9973 41.0386 32.669 41.1409 31.3948 40.8618C30.1206 40.5827 28.9568 39.9344 28.0487 38.998C27.1406 38.0616 26.5284 36.8785 26.2885 35.5963C26.0486 34.3141 26.1916 32.9896 26.6998 31.7882C27.2079 30.5868 28.0586 29.5617 29.1457 28.8408C30.2328 28.1198 31.5082 27.735 32.8126 27.7344C33.1234 27.7344 33.4215 27.6109 33.6412 27.3912C33.861 27.1714 33.9845 26.8733 33.9845 26.5625C33.9845 26.2517 33.861 25.9536 33.6412 25.7339C33.4215 25.5141 33.1234 25.3906 32.8126 25.3906C31.5619 25.3903 30.325 25.6516 29.1813 26.1578C28.0377 26.6641 27.0126 27.404 26.172 28.3301V14.0625C26.172 12.3013 26.8716 10.6122 28.117 9.36688C29.3623 8.12152 31.0514 7.42188 32.8126 7.42188C34.5738 7.42188 36.2629 8.12152 37.5082 9.36688C38.7536 10.6122 39.4532 12.3013 39.4532 14.0625V15.377C39.4531 15.6194 39.5282 15.8559 39.6681 16.0539C39.808 16.2519 40.0059 16.4016 40.2345 16.4824C42.0606 17.1263 43.6 18.3953 44.5805 20.065C45.5609 21.7347 45.9192 23.6973 45.5918 25.6057C45.2644 27.5141 44.2725 29.2452 42.7916 30.4926C41.3108 31.7401 39.4364 32.4235 37.5001 32.4219ZM40.2345 21.875C40.2345 22.1858 40.111 22.4839 39.8913 22.7036C39.6715 22.9234 39.3734 23.0469 39.0626 23.0469H38.2814C36.5202 23.0469 34.8311 22.3472 33.5857 21.1019C32.3404 19.8565 31.6407 18.1675 31.6407 16.4063V15.625C31.6407 15.3142 31.7642 15.0161 31.984 14.7964C32.2037 14.5766 32.5018 14.4531 32.8126 14.4531C33.1234 14.4531 33.4215 14.5766 33.6412 14.7964C33.861 15.0161 33.9845 15.3142 33.9845 15.625V16.4063C33.9845 17.5459 34.4372 18.6388 35.243 19.4446C36.0488 20.2504 37.1418 20.7031 38.2814 20.7031H39.0626C39.3734 20.7031 39.6715 20.8266 39.8913 21.0464C40.111 21.2661 40.2345 21.5642 40.2345 21.875ZM11.7189 23.0469H10.9376C10.6268 23.0469 10.3287 22.9234 10.109 22.7036C9.8892 22.4839 9.76573 22.1858 9.76573 21.875C9.76573 21.5642 9.8892 21.2661 10.109 21.0464C10.3287 20.8266 10.6268 20.7031 10.9376 20.7031H11.7189C12.8585 20.7031 13.9514 20.2504 14.7572 19.4446C15.563 18.6388 16.0157 17.5459 16.0157 16.4063V15.625C16.0157 15.3142 16.1392 15.0161 16.359 14.7964C16.5787 14.5766 16.8768 14.4531 17.1876 14.4531C17.4984 14.4531 17.7965 14.5766 18.0162 14.7964C18.236 15.0161 18.3595 15.3142 18.3595 15.625V16.4063C18.3595 18.1675 17.6598 19.8565 16.4145 21.1019C15.1691 22.3472 13.4801 23.0469 11.7189 23.0469Z" fill="black"/>
</svg>
