<svg width="50" height="50" viewBox="0 0 50 50" fill="none" xmlns="http://www.w3.org/2000/svg">
<path d="M31.25 39.0625H42.1875V42.1875H31.25V39.0625ZM34.375 45.3125H39.0625V48.4375H34.375V45.3125ZM42.1875 35.9375H39.0625C39.0625 34.2188 39.6875 32.8125 40.9375 31.5625L41.7188 30.7813C42.9688 29.5313 43.75 27.6562 43.75 25.7812C43.75 21.875 40.625 18.75 36.7188 18.75C32.8125 18.75 29.6875 21.875 29.6875 25.7812C29.6875 27.6562 30.4687 29.375 31.7187 30.7813L32.5 31.5625C33.75 32.8125 34.375 34.2188 34.375 35.9375H31.25C31.25 35.1562 30.9375 34.375 30.3125 33.75L29.5312 32.9688C27.6562 31.0938 26.5625 28.4375 26.5625 25.7812C26.5625 20.1562 31.0938 15.625 36.7188 15.625C42.3438 15.625 46.875 20.1562 46.875 25.7812C46.875 28.4375 45.7812 31.0938 43.9062 32.9688L43.125 33.75C42.5 34.375 42.1875 35.1562 42.1875 35.9375ZM9.375 34.375H21.875V37.5H9.375V34.375Z" fill="black"/>
<path d="M18.75 31.25C19.6129 31.25 20.3125 30.5504 20.3125 29.6875C20.3125 28.8246 19.6129 28.125 18.75 28.125C17.8871 28.125 17.1875 28.8246 17.1875 29.6875C17.1875 30.5504 17.8871 31.25 18.75 31.25Z" fill="black"/>
<path d="M9.375 28.125H14.0625V31.25H9.375V28.125ZM9.375 21.875H20.3125V25H9.375V21.875ZM15.625 15.625H26.5625V18.75H15.625V15.625Z" fill="black"/>
<path d="M10.9375 18.75C11.8004 18.75 12.5 18.0504 12.5 17.1875C12.5 16.3246 11.8004 15.625 10.9375 15.625C10.0746 15.625 9.375 16.3246 9.375 17.1875C9.375 18.0504 10.0746 18.75 10.9375 18.75Z" fill="black"/>
<path d="M25 9.375H31.25V12.5H25V9.375Z" fill="black"/>
<path d="M20.3125 12.5C21.1754 12.5 21.875 11.8004 21.875 10.9375C21.875 10.0746 21.1754 9.375 20.3125 9.375C19.4496 9.375 18.75 10.0746 18.75 10.9375C18.75 11.8004 19.4496 12.5 20.3125 12.5Z" fill="black"/>
<path d="M9.375 9.375H15.625V12.5H9.375V9.375Z" fill="black"/>
<path d="M28.125 43.75H6.25V6.25H34.375V12.5H37.5V6.25C37.5 4.53125 36.0938 3.125 34.375 3.125H6.25C4.53125 3.125 3.125 4.53125 3.125 6.25V43.75C3.125 45.4688 4.53125 46.875 6.25 46.875H28.125V43.75Z" fill="black"/>
</svg>
